# xmcd
#
# Track frame offsets:
#	150
#	17887
#	34483
#	52082
#	69804
#	86553
#	102966
#	113707
#	131693
#	148381
#	162121
#	178671
#	193577
#	209952
#	224455
#	236149
#	249016
#	265383
#	282344
#	300181
#
# Disc length: 4238 seconds
#
# Revision: 0
# Processed by: cddbd v1.5.2PL0 Copyright (c) Steve Scherf et al.
# Submitted via: EasyCDDAExtractor 11.0.2.1
#
DISCID=30108c14
DTITLE=Various Artist - CDX Volume 441
DYEAR=2008
DGENRE=Country
TTITLE0=Eagles - Busy Being Fabulous
TTITLE1=Joe Nichols - It Ain't No Crime
TTITLE2=Willie Nelson - Moment Of Forever
TTITLE3=Jewel - Stronger Woman
TTITLE4=Dierks Bentley - Trying To Stop Your Leaving
TTITLE5=Crystal Shawanda - You Can Let Go
TTITLE6=Willie Nelson - You Don't Think I'm Funny Anymore
TTITLE7=Randy Owen - Braid My Hair
TTITLE8=Trent Willmon - Broken In
TTITLE9=Steve Earle and Allison Moorer - Days Weren't Long Enough
TTITLE10=Jim Lauderdale and The Dream Players - Hittin' It Hard
TTITLE11=Rockie Lynne - I Can't Believe It's Me
TTITLE12=Jeff Bates - ICan't Have Anything Nice
TTITLE13=Julie Ingram - A Place Called Love
TTITLE14=Bulls Gap - Country Kind Of Cowboy
TTITLE15=Jeff Griffith - Holed Up In Some Honky Tonk
TTITLE16=Karon Kate - I Pray Before
TTITLE17=Kim McAbee - It Ain't Workin' On Me
TTITLE18=Russell Walker - It's Enough To Make An Angel Cry
TTITLE19=Leland Martin - Royal Purple Peterbilt
EXTD=
EXTT0=
EXTT1=
EXTT2=
EXTT3=
EXTT4=
EXTT5=
EXTT6=
EXTT7=
EXTT8=
EXTT9=
EXTT10=
EXTT11=
EXTT12=
EXTT13=
EXTT14=
EXTT15=
EXTT16=
EXTT17=
EXTT18=
EXTT19=
PLAYORDER=
